<svg id="Capa_1" data-name="Capa 1" xmlns="http://www.w3.org/2000/svg" viewBox="0 0 1610.52 512"><defs><style>.cls-1{fill:#e56353;}.cls-2{fill:#64798a;}.cls-3{fill:#d5d6db;}.cls-4{fill:#3a556a;}</style></defs><title>Papercut</title><path class="cls-1" d="M55.83,496.86H0V15.14H55.83A27.29,27.29,0,0,1,83.12,42.43V469.57A27.29,27.29,0,0,1,55.83,496.86Z"/><rect class="cls-2" x="83.12" y="132.83" width="100.75" height="49.25"/><rect class="cls-2" x="83.12" y="329.92" width="100.75" height="49.25"/><path class="cls-3" d="M478.06,447.68H174.63V61.31H478.06A34,34,0,0,1,512,95.25V413.74A34,34,0,0,1,478.06,447.68Z"/><path class="cls-4" d="M427.32,136.3q30.27,25.77,30.27,79.08t-31.09,78q-31.11,24.72-94.93,24.72h-38.3v80.3H229V110.56H330.75Q397.06,110.56,427.32,136.3ZM380.17,249.56q11.5-13,11.53-37.89t-15-35.42q-15-10.51-46.74-10.49H293.27v96.77h43.25Q368.64,262.53,380.17,249.56Z"/><path class="cls-4" d="M541,258.77a95,95,0,0,1,31-18.89,105.32,105.32,0,0,1,36.71-6.25,65.81,65.81,0,0,1,25.38,4.63,54.17,54.17,0,0,1,19,12.88,56.6,56.6,0,0,1,12,19.66,72.64,72.64,0,0,1,4.16,25v100H649.79c-4,0-7.08-.56-9.18-1.7s-3.83-3.49-5.17-7.09l-3.39-10.18Q626,382,620.4,386a67.3,67.3,0,0,1-11.65,6.71,61,61,0,0,1-12.87,4.09,77.44,77.44,0,0,1-15.35,1.39,62.29,62.29,0,0,1-19.13-2.78,41.61,41.61,0,0,1-14.89-8.25,36.41,36.41,0,0,1-9.64-13.65,48.83,48.83,0,0,1-3.39-18.82A38.55,38.55,0,0,1,538,337.13q4.47-8.79,15.35-16t29-11.88q18.12-4.71,45.43-5.32v-8.18q0-15-6.33-22t-18.2-7a44.13,44.13,0,0,0-14.65,2.09,71.39,71.39,0,0,0-10.26,4.47L570,277.82a18.57,18.57,0,0,1-8.95,2.08,12.18,12.18,0,0,1-7.48-2.23,20.42,20.42,0,0,1-5-5.32Zm86.69,70.5a197.17,197.17,0,0,0-25.92,2.7q-10.34,1.92-16.42,5t-8.64,7a15.41,15.41,0,0,0-2.55,8.56q0,9.26,5.17,13.11t14.42,3.86a41.85,41.85,0,0,0,18.44-3.78,56,56,0,0,0,15.5-11.8Z"/><path class="cls-4" d="M742.65,257.54a93.38,93.38,0,0,1,10.18-9.64,65.76,65.76,0,0,1,11.57-7.56,62.07,62.07,0,0,1,13.26-4.94,63.63,63.63,0,0,1,15.43-1.77,51.09,51.09,0,0,1,23.52,5.47A52.68,52.68,0,0,1,835,255q7.73,10.41,12,25.53t4.32,34.55a108,108,0,0,1-4.86,33.09,80.61,80.61,0,0,1-13.81,26.3,63.81,63.81,0,0,1-21.52,17.36,62.09,62.09,0,0,1-28,6.24q-12.94,0-22-3.85a55.25,55.25,0,0,1-16.12-10.49v63.4H702.54V236.71h26.22q8,0,10.65,7.41Zm2.46,96.25a34,34,0,0,0,13,9.72,40.53,40.53,0,0,0,15,2.78,33.07,33.07,0,0,0,14-2.93,28.07,28.07,0,0,0,10.87-9.18,46.47,46.47,0,0,0,7-16,95.21,95.21,0,0,0,2.47-23.14,104.13,104.13,0,0,0-2.09-22.52,44.82,44.82,0,0,0-5.86-15,22.63,22.63,0,0,0-9.18-8.25,27.82,27.82,0,0,0-12-2.55q-11.25,0-18.89,4.4a52.22,52.22,0,0,0-14.43,12.88Z"/><path class="cls-4" d="M912.63,322.79q2,22.36,12.73,32.7t28,10.33a49.27,49.27,0,0,0,15.19-2.08,73.79,73.79,0,0,0,11.26-4.62l8.79-4.63a16.57,16.57,0,0,1,7.79-2.09,9.11,9.11,0,0,1,7.72,3.71l12.34,15.42a67.5,67.5,0,0,1-15,13,80.65,80.65,0,0,1-17,8.17,90.23,90.23,0,0,1-17.74,4.17,135.11,135.11,0,0,1-17.28,1.15,86.81,86.81,0,0,1-31.08-5.47,70.38,70.38,0,0,1-25.14-16.2,75.91,75.91,0,0,1-16.9-26.61q-6.17-15.88-6.17-36.86a87.12,87.12,0,0,1,5.33-30.55,71.68,71.68,0,0,1,39.72-41.88q14.34-6.24,32.39-6.24a79.36,79.36,0,0,1,28.15,4.85A62.36,62.36,0,0,1,998,253.22a63.32,63.32,0,0,1,14.5,22.75q5.18,13.5,5.17,30.78a54.49,54.49,0,0,1-.46,7.86,14.25,14.25,0,0,1-1.54,4.94,5.64,5.64,0,0,1-2.93,2.54,13.7,13.7,0,0,1-4.79.7Zm67-25.3a44.6,44.6,0,0,0-1.77-12.65,29.5,29.5,0,0,0-5.63-10.64,27.32,27.32,0,0,0-9.72-7.33,33.37,33.37,0,0,0-14-2.7q-15.27,0-23.91,8.64t-11.26,24.68Z"/><path class="cls-4" d="M1084,262.94q7.56-13.58,17.43-21.44a36,36,0,0,1,23.14-7.87q10.8,0,17.58,5.09l-2.77,31.47a7.14,7.14,0,0,1-2.39,4.24,7.46,7.46,0,0,1-4.4,1.16,52.38,52.38,0,0,1-7.1-.7,58.66,58.66,0,0,0-8.63-.69,29.77,29.77,0,0,0-10.42,1.69,26.22,26.22,0,0,0-8.09,4.79,34.47,34.47,0,0,0-6.41,7.55,73.27,73.27,0,0,0-5.32,10.19v97.33h-42.57v-159h25.14q6.48,0,9,2.32c1.64,1.54,2.83,4.22,3.55,8Z"/><path class="cls-4" d="M1272.05,272.19a17.31,17.31,0,0,1-3.7,3.78,9,9,0,0,1-5.25,1.31,11.1,11.1,0,0,1-5.94-1.77c-1.9-1.18-4.09-2.47-6.55-3.86a54.33,54.33,0,0,0-8.8-3.85,38.85,38.85,0,0,0-12.64-1.78,37.09,37.09,0,0,0-16.59,3.47,31,31,0,0,0-11.64,9.95,44.88,44.88,0,0,0-6.87,15.74,88.88,88.88,0,0,0-2.24,20.82q0,24.38,9.8,37.33t26.76,13a44.4,44.4,0,0,0,10.11-1,35.73,35.73,0,0,0,7.4-2.55,29.82,29.82,0,0,0,5.48-3.39c1.54-1.24,3-2.37,4.39-3.4a26.62,26.62,0,0,1,4.17-2.54,10.67,10.67,0,0,1,4.7-1,9.12,9.12,0,0,1,7.72,3.71l12.18,15.42a72.58,72.58,0,0,1-14.5,13,74.37,74.37,0,0,1-16,8.17,80.27,80.27,0,0,1-16.74,4.17,124.54,124.54,0,0,1-16.81,1.15,71.34,71.34,0,0,1-27.77-5.47,66.27,66.27,0,0,1-23-16,76.6,76.6,0,0,1-15.66-25.76q-5.79-15.27-5.79-34.86a99.74,99.74,0,0,1,5.1-32.39,73.61,73.61,0,0,1,15-25.92,69,69,0,0,1,24.45-17.2q14.58-6.24,33.7-6.24,18.21,0,31.93,5.86a76.67,76.67,0,0,1,24.68,17Z"/><path class="cls-4" d="M1445.58,236.71v159h-26.22q-8.17,0-10.49-7.4l-2.78-11.11a109.22,109.22,0,0,1-9.87,8.48,63.47,63.47,0,0,1-10.87,6.64,60,60,0,0,1-12.5,4.32,65.49,65.49,0,0,1-14.58,1.54,56.34,56.34,0,0,1-23.06-4.48,46.37,46.37,0,0,1-16.89-12.49A55.22,55.22,0,0,1,1308,362.12a79.54,79.54,0,0,1-3.55-24.37v-101H1347v101q0,13.28,6.1,20.59t18.12,7.33a37.1,37.1,0,0,0,16.81-3.93A61.47,61.47,0,0,0,1403,351V236.71Z"/><path class="cls-4" d="M1535.67,398.22a53.84,53.84,0,0,1-19.13-3.16,37.13,37.13,0,0,1-22.68-23.22,56.54,56.54,0,0,1-2.93-18.82V267.26h-15a8.31,8.31,0,0,1-5.78-2.16q-2.4-2.16-2.4-6.48V242l25.46-4.63,8.63-41.19q1.71-6.93,9.41-6.94h22.22v48.44h41v29.62h-41v83q0,6.63,3.16,10.48t9,3.86a17.4,17.4,0,0,0,5.25-.69,21.36,21.36,0,0,0,3.7-1.55c1-.56,2-1.08,2.85-1.54a5.77,5.77,0,0,1,2.7-.69,5.31,5.31,0,0,1,3.09.85,9.38,9.38,0,0,1,2.47,2.85l12.8,20.36a62.38,62.38,0,0,1-19.9,10.49A74.92,74.92,0,0,1,1535.67,398.22Z"/></svg>